<svg aria-roledescription="er" role="graphics-document document" viewBox="0 0 512.2320556640625 700" style="max-width: 512.232px; background-color: white;" xmlns:xlink="http://www.w3.org/1999/xlink" xmlns="http://www.w3.org/2000/svg" width="100%" id="my-svg"><style>#my-svg{font-family:"trebuchet ms",verdana,arial,sans-serif;font-size:16px;fill:#000000;}#my-svg .error-icon{fill:#552222;}#my-svg .error-text{fill:#552222;stroke:#552222;}#my-svg .edge-thickness-normal{stroke-width:2px;}#my-svg .edge-thickness-thick{stroke-width:3.5px;}#my-svg .edge-pattern-solid{stroke-dasharray:0;}#my-svg .edge-pattern-dashed{stroke-dasharray:3;}#my-svg .edge-pattern-dotted{stroke-dasharray:2;}#my-svg .marker{fill:#000000;stroke:#000000;}#my-svg .marker.cross{stroke:#000000;}#my-svg svg{font-family:"trebuchet ms",verdana,arial,sans-serif;font-size:16px;}#my-svg .entityBox{fill:#cde498;stroke:#13540c;}#my-svg .attributeBoxOdd{fill:#ffffff;stroke:#13540c;}#my-svg .attributeBoxEven{fill:#f2f2f2;stroke:#13540c;}#my-svg .relationshipLabelBox{fill:hsl(78.1578947368, 58.4615384615%, 84.5098039216%);opacity:0.7;background-color:hsl(78.1578947368, 58.4615384615%, 84.5098039216%);}#my-svg .relationshipLabelBox rect{opacity:0.5;}#my-svg .relationshipLine{stroke:#000000;}#my-svg .entityTitleText{text-anchor:middle;font-size:18px;fill:#000000;}#my-svg #MD_PARENT_START{fill:#f5f5f5!important;stroke:#000000!important;stroke-width:1;}#my-svg #MD_PARENT_END{fill:#f5f5f5!important;stroke:#000000!important;stroke-width:1;}#my-svg :root{--mermaid-font-family:"trebuchet ms",verdana,arial,sans-serif;}</style><g/><defs><marker orient="auto" markerHeight="240" markerWidth="190" refY="7" refX="0" id="MD_PARENT_START"><path d="M 18,7 L9,13 L1,7 L9,1 Z"/></marker></defs><defs><marker orient="auto" markerHeight="28" markerWidth="20" refY="7" refX="19" id="MD_PARENT_END"><path d="M 18,7 L9,13 L1,7 L9,1 Z"/></marker></defs><defs><marker orient="auto" markerHeight="18" markerWidth="18" refY="9" refX="0" id="ONLY_ONE_START"><path d="M9,0 L9,18 M15,0 L15,18" fill="none" stroke="gray"/></marker></defs><defs><marker orient="auto" markerHeight="18" markerWidth="18" refY="9" refX="18" id="ONLY_ONE_END"><path d="M3,0 L3,18 M9,0 L9,18" fill="none" stroke="gray"/></marker></defs><defs><marker orient="auto" markerHeight="18" markerWidth="30" refY="9" refX="0" id="ZERO_OR_ONE_START"><circle r="6" cy="9" cx="21" fill="white" stroke="gray"/><path d="M9,0 L9,18" fill="none" stroke="gray"/></marker></defs><defs><marker orient="auto" markerHeight="18" markerWidth="30" refY="9" refX="30" id="ZERO_OR_ONE_END"><circle r="6" cy="9" cx="9" fill="white" stroke="gray"/><path d="M21,0 L21,18" fill="none" stroke="gray"/></marker></defs><defs><marker orient="auto" markerHeight="36" markerWidth="45" refY="18" refX="18" id="ONE_OR_MORE_START"><path d="M0,18 Q 18,0 36,18 Q 18,36 0,18 M42,9 L42,27" fill="none" stroke="gray"/></marker></defs><defs><marker orient="auto" markerHeight="36" markerWidth="45" refY="18" refX="27" id="ONE_OR_MORE_END"><path d="M3,9 L3,27 M9,18 Q27,0 45,18 Q27,36 9,18" fill="none" stroke="gray"/></marker></defs><defs><marker orient="auto" markerHeight="36" markerWidth="57" refY="18" refX="18" id="ZERO_OR_MORE_START"><circle r="6" cy="18" cx="48" fill="white" stroke="gray"/><path d="M0,18 Q18,0 36,18 Q18,36 0,18" fill="none" stroke="gray"/></marker></defs><defs><marker orient="auto" markerHeight="36" markerWidth="57" refY="18" refX="39" id="ZERO_OR_MORE_END"><circle r="6" cy="18" cx="9" fill="white" stroke="gray"/><path d="M21,18 Q39,0 57,18 Q39,36 21,18" fill="none" stroke="gray"/></marker></defs><path style="stroke: gray; fill: none;" marker-start="url(#ZERO_OR_MORE_START)" marker-end="url(#ZERO_OR_MORE_END)" d="M168.53658576238723,88L159.44515590062215,96.33333333333333C150.3537260388571,104.66666666666667,132.170866315327,121.33333333333333,132.17086631532698,138C132.170866315327,154.66666666666666,150.3537260388571,171.33333333333334,159.44515590062215,179.66666666666666L168.53658576238723,188" class="er relationshipLine"/><path style="stroke: gray; fill: none;" marker-start="url(#ZERO_OR_MORE_START)" marker-end="url(#ZERO_OR_MORE_END)" d="M168.53658576238723,256L159.44515590062215,264.3333333333333C150.3537260388571,272.6666666666667,132.170866315327,289.3333333333333,129.60661686713684,306C127.0423674189467,322.6666666666667,140.09672824609655,339.3333333333333,146.62390865967146,347.6666666666667L153.15108907324637,356" class="er relationshipLine"/><path style="stroke: gray; fill: none;" marker-start="url(#ZERO_OR_ONE_START)" marker-end="url(#ONLY_ONE_END)" d="M209.01277623857771,188L209.84198129744757,179.66666666666666C210.67118635631743,171.33333333333334,212.32959647405718,154.66666666666666,212.32959647405718,138C212.32959647405718,121.33333333333333,210.67118635631743,104.66666666666667,209.84198129744757,96.33333333333333L209.01277623857771,88" class="er relationshipLine"/><path style="stroke: gray; fill: none;" marker-start="url(#ZERO_OR_MORE_START)" marker-end="url(#ZERO_OR_MORE_END)" d="M255.62961959838867,207.83333333333334L267.29628626505536,204.5277777777778C278.962952931722,201.22222222222226,302.29628626505536,194.61111111111111,316.8796195983887,191.30555555555557C331.462952931722,188,337.29628626505536,188,343.1296195983887,193.66666666666666C348.962952931722,199.33333333333334,354.79628626505536,210.66666666666666,354.79628626505536,222C354.79628626505536,233.33333333333334,348.962952931722,244.66666666666666,343.1296195983887,250.33333333333334C337.29628626505536,256,331.462952931722,256,316.8796195983887,252.69444444444446C302.29628626505536,249.38888888888889,278.962952931722,242.77777777777774,267.29628626505536,239.4722222222222L255.62961959838867,236.16666666666666" class="er relationshipLine"/><path style="stroke: gray; fill: none;" marker-start="url(#ZERO_OR_ONE_START)" marker-end="url(#ZERO_OR_ONE_END)" d="M255.62961959838867,213.20689655172413L279.5185084872776,209.00574712643677C303.40739737616644,204.80459770114942,351.1851751539443,196.40229885057474,381.04628626505536,192.20114942528735C410.9073973761665,188,422.85184182061084,188,434.79628626505536,193.66666666666666C446.74073070949976,199.33333333333334,458.68517515394416,210.66666666666666,458.68517515394416,222C458.68517515394416,233.33333333333334,446.74073070949976,244.66666666666666,434.79628626505536,250.33333333333334C422.85184182061084,256,410.9073973761665,256,381.04628626505536,251.79885057471265C351.1851751539443,247.59770114942526,303.40739737616644,239.19540229885058,279.5185084872776,234.99425287356323L255.62961959838867,230.79310344827587" class="er relationshipLine"/><path style="stroke: gray; fill: none;" marker-start="url(#ZERO_OR_ONE_START)" marker-end="url(#ONLY_ONE_END)" d="M210.4160463382036,356L211.01137304713583,347.6666666666667C211.60669975606802,339.3333333333333,212.79735317393246,322.6666666666667,212.56347482399482,306C212.32959647405718,289.3333333333333,210.67118635631743,272.6666666666667,209.84198129744757,264.3333333333333L209.01277623857771,256" class="er relationshipLine"/><path style="stroke: gray; fill: none;" marker-start="url(#ZERO_OR_ONE_START)" marker-end="url(#ONLY_ONE_END)" d="M153.15108907324637,490L146.62390865967146,498.3333333333333C140.09672824609655,506.6666666666667,127.0423674189467,523.3333333333334,120.51518700537179,540C113.98800659179688,556.6666666666666,113.98800659179688,573.3333333333334,113.98800659179688,581.6666666666666L113.98800659179688,590" class="er relationshipLine"/><path style="stroke: gray; fill: none;" marker-start="url(#ZERO_OR_MORE_START)" marker-end="url(#ZERO_OR_MORE_END)" d="M252.87320934197842,490L258.7492777180468,498.3333333333333C264.6253460941152,506.6666666666667,276.3774828462519,523.3333333333334,290.1880045440784,541.8333333333334C303.9985262419048,560.3333333333334,319.86743288542095,580.6666666666666,327.80188620717905,590.8333333333334L335.7363395289371,601" class="er relationshipLine"/><path style="stroke: gray; fill: none;" marker-start="url(#ZERO_OR_ONE_START)" marker-end="url(#ONLY_ONE_END)" d="M380.16596944708573,601L385.5168466400682,590.8333333333334C390.8677238330506,580.6666666666666,401.56947821901554,560.3333333333334,385.4811966544703,538.0278649116168C369.3929150899251,515.7223964899005,326.5145975748698,491.44479297980087,305.0754388173421,479.30599122475104L283.63628005981445,467.1671894697012" class="er relationshipLine"/><g transform="translate(20,590 )" id="entity-QuestionType-414e6b5a-3c14-513f-9581-4c8349ac4e3f"><rect height="90" width="187.97601318359375" y="0" x="0" class="er entityBox"/><text style="dominant-baseline: middle; text-anchor: middle; font-size: 12px;" transform="translate(93.98800659179688,12)" y="0" x="0" id="text-entity-QuestionType-414e6b5a-3c14-513f-9581-4c8349ac4e3f" class="er entityLabel">QuestionType</text><rect height="22" width="93.98800659179688" y="24" x="0" class="er attributeBoxOdd"/><text style="dominant-baseline: middle; font-size: 10.2px;" transform="translate(5,35)" y="0" x="0" id="text-entity-QuestionType-414e6b5a-3c14-513f-9581-4c8349ac4e3f-attr-1-type" class="er entityLabel">TEXT</text><rect height="22" width="93.98800659179688" y="24" x="93.98800659179688" class="er attributeBoxOdd"/><text style="dominant-baseline: middle; font-size: 10.2px;" transform="translate(98.98800659179688,35)" y="0" x="0" id="text-entity-QuestionType-414e6b5a-3c14-513f-9581-4c8349ac4e3f-attr-1-name" class="er entityLabel">TEXT</text><rect height="22" width="93.98800659179688" y="46" x="0" class="er attributeBoxEven"/><text style="dominant-baseline: middle; font-size: 10.2px;" transform="translate(5,57)" y="0" x="0" id="text-entity-QuestionType-414e6b5a-3c14-513f-9581-4c8349ac4e3f-attr-2-type" class="er entityLabel">SINGLE_CHOICE</text><rect height="22" width="93.98800659179688" y="46" x="93.98800659179688" class="er attributeBoxEven"/><text style="dominant-baseline: middle; font-size: 10.2px;" transform="translate(98.98800659179688,57)" y="0" x="0" id="text-entity-QuestionType-414e6b5a-3c14-513f-9581-4c8349ac4e3f-attr-2-name" class="er entityLabel">SINGLE_CHOICE</text><rect height="22" width="93.98800659179688" y="68" x="0" class="er attributeBoxOdd"/><text style="dominant-baseline: middle; font-size: 10.2px;" transform="translate(5,79)" y="0" x="0" id="text-entity-QuestionType-414e6b5a-3c14-513f-9581-4c8349ac4e3f-attr-3-type" class="er entityLabel">MULTIPLE_CHOICE</text><rect height="22" width="93.98800659179688" y="68" x="93.98800659179688" class="er attributeBoxOdd"/><text style="dominant-baseline: middle; font-size: 10.2px;" transform="translate(98.98800659179688,79)" y="0" x="0" id="text-entity-QuestionType-414e6b5a-3c14-513f-9581-4c8349ac4e3f-attr-3-name" class="er entityLabel">MULTIPLE_CHOICE</text></g><g transform="translate(153.03391647338867,20 )" id="entity-Questionnaire-590f1ee6-e9de-5e13-9994-236a612fa47c"><rect height="68" width="105.19140625" y="0" x="0" class="er entityBox"/><text style="dominant-baseline: middle; text-anchor: middle; font-size: 12px;" transform="translate(52.595703125,12)" y="0" x="0" id="text-entity-Questionnaire-590f1ee6-e9de-5e13-9994-236a612fa47c" class="er entityLabel">Questionnaire</text><rect height="22" width="40.18966166178385" y="24" x="0" class="er attributeBoxOdd"/><text style="dominant-baseline: middle; font-size: 10.2px;" transform="translate(5,35)" y="0" x="0" id="text-entity-Questionnaire-590f1ee6-e9de-5e13-9994-236a612fa47c-attr-1-type" class="er entityLabel">Int</text><rect height="22" width="38.19251505533854" y="24" x="40.18966166178385" class="er attributeBoxOdd"/><text style="dominant-baseline: middle; font-size: 10.2px;" transform="translate(45.18966166178385,35)" y="0" x="0" id="text-entity-Questionnaire-590f1ee6-e9de-5e13-9994-236a612fa47c-attr-1-name" class="er entityLabel">id</text><rect height="22" width="26.809229532877605" y="24" x="78.38217671712239" class="er attributeBoxOdd"/><text style="dominant-baseline: middle; font-size: 10.2px;" transform="translate(83.38217671712239,35)" y="0" x="0" id="text-entity-Questionnaire-590f1ee6-e9de-5e13-9994-236a612fa47c-attr-1-comment" class="er entityLabel">🗝️</text><rect height="22" width="40.18966166178385" y="46" x="0" class="er attributeBoxEven"/><text style="dominant-baseline: middle; font-size: 10.2px;" transform="translate(5,57)" y="0" x="0" id="text-entity-Questionnaire-590f1ee6-e9de-5e13-9994-236a612fa47c-attr-2-type" class="er entityLabel">String</text><rect height="22" width="38.19251505533854" y="46" x="40.18966166178385" class="er attributeBoxEven"/><text style="dominant-baseline: middle; font-size: 10.2px;" transform="translate(45.18966166178385,57)" y="0" x="0" id="text-entity-Questionnaire-590f1ee6-e9de-5e13-9994-236a612fa47c-attr-2-name" class="er entityLabel">name</text><rect height="22" width="26.809229532877605" y="46" x="78.38217671712239" class="er attributeBoxEven"/><text style="dominant-baseline: middle; font-size: 10.2px;" transform="translate(83.38217671712239,57)" y="0" x="0" id="text-entity-Questionnaire-590f1ee6-e9de-5e13-9994-236a612fa47c-attr-2-comment" class="er entityLabel"/></g><g transform="translate(155.62961959838867,188 )" id="entity-Page-7a725333-9963-54c6-94fb-e69f5a16bdeb"><rect height="68" width="100" y="0" x="0" class="er entityBox"/><text style="dominant-baseline: middle; text-anchor: middle; font-size: 12px;" transform="translate(50,12)" y="0" x="0" id="text-entity-Page-7a725333-9963-54c6-94fb-e69f5a16bdeb" class="er entityLabel">Page</text><rect height="22" width="40.25715128580729" y="24" x="0" class="er attributeBoxOdd"/><text style="dominant-baseline: middle; font-size: 10.2px;" transform="translate(5,35)" y="0" x="0" id="text-entity-Page-7a725333-9963-54c6-94fb-e69f5a16bdeb-attr-1-type" class="er entityLabel">Int</text><rect height="22" width="32.866129557291664" y="24" x="40.25715128580729" class="er attributeBoxOdd"/><text style="dominant-baseline: middle; font-size: 10.2px;" transform="translate(45.25715128580729,35)" y="0" x="0" id="text-entity-Page-7a725333-9963-54c6-94fb-e69f5a16bdeb-attr-1-name" class="er entityLabel">id</text><rect height="22" width="26.876719156901043" y="24" x="73.12328084309895" class="er attributeBoxOdd"/><text style="dominant-baseline: middle; font-size: 10.2px;" transform="translate(78.12328084309895,35)" y="0" x="0" id="text-entity-Page-7a725333-9963-54c6-94fb-e69f5a16bdeb-attr-1-comment" class="er entityLabel">🗝️</text><rect height="22" width="40.25715128580729" y="46" x="0" class="er attributeBoxEven"/><text style="dominant-baseline: middle; font-size: 10.2px;" transform="translate(5,57)" y="0" x="0" id="text-entity-Page-7a725333-9963-54c6-94fb-e69f5a16bdeb-attr-2-type" class="er entityLabel">String</text><rect height="22" width="32.866129557291664" y="46" x="40.25715128580729" class="er attributeBoxEven"/><text style="dominant-baseline: middle; font-size: 10.2px;" transform="translate(45.25715128580729,57)" y="0" x="0" id="text-entity-Page-7a725333-9963-54c6-94fb-e69f5a16bdeb-attr-2-name" class="er entityLabel">title</text><rect height="22" width="26.876719156901043" y="46" x="73.12328084309895" class="er attributeBoxEven"/><text style="dominant-baseline: middle; font-size: 10.2px;" transform="translate(78.12328084309895,57)" y="0" x="0" id="text-entity-Page-7a725333-9963-54c6-94fb-e69f5a16bdeb-attr-2-comment" class="er entityLabel"/></g><g transform="translate(127.62295913696289,356 )" id="entity-Question-489e4f99-55a1-57b9-ae56-53457bd575f3"><rect height="134" width="156.01332092285156" y="0" x="0" class="er entityBox"/><text style="dominant-baseline: middle; text-anchor: middle; font-size: 12px;" transform="translate(78.00666046142578,12)" y="0" x="0" id="text-entity-Question-489e4f99-55a1-57b9-ae56-53457bd575f3" class="er entityLabel">Question</text><rect height="22" width="71.61680603027344" y="24" x="0" class="er attributeBoxOdd"/><text style="dominant-baseline: middle; font-size: 10.2px;" transform="translate(5,35)" y="0" x="0" id="text-entity-Question-489e4f99-55a1-57b9-ae56-53457bd575f3-attr-1-type" class="er entityLabel">Int</text><rect height="22" width="60.380889892578125" y="24" x="71.61680603027344" class="er attributeBoxOdd"/><text style="dominant-baseline: middle; font-size: 10.2px;" transform="translate(76.61680603027344,35)" y="0" x="0" id="text-entity-Question-489e4f99-55a1-57b9-ae56-53457bd575f3-attr-1-name" class="er entityLabel">id</text><rect height="22" width="24.015625" y="24" x="131.99769592285156" class="er attributeBoxOdd"/><text style="dominant-baseline: middle; font-size: 10.2px;" transform="translate(136.99769592285156,35)" y="0" x="0" id="text-entity-Question-489e4f99-55a1-57b9-ae56-53457bd575f3-attr-1-comment" class="er entityLabel">🗝️</text><rect height="22" width="71.61680603027344" y="46" x="0" class="er attributeBoxEven"/><text style="dominant-baseline: middle; font-size: 10.2px;" transform="translate(5,57)" y="0" x="0" id="text-entity-Question-489e4f99-55a1-57b9-ae56-53457bd575f3-attr-2-type" class="er entityLabel">QuestionType</text><rect height="22" width="60.380889892578125" y="46" x="71.61680603027344" class="er attributeBoxEven"/><text style="dominant-baseline: middle; font-size: 10.2px;" transform="translate(76.61680603027344,57)" y="0" x="0" id="text-entity-Question-489e4f99-55a1-57b9-ae56-53457bd575f3-attr-2-name" class="er entityLabel">type</text><rect height="22" width="24.015625" y="46" x="131.99769592285156" class="er attributeBoxEven"/><text style="dominant-baseline: middle; font-size: 10.2px;" transform="translate(136.99769592285156,57)" y="0" x="0" id="text-entity-Question-489e4f99-55a1-57b9-ae56-53457bd575f3-attr-2-comment" class="er entityLabel"/><rect height="22" width="71.61680603027344" y="68" x="0" class="er attributeBoxOdd"/><text style="dominant-baseline: middle; font-size: 10.2px;" transform="translate(5,79)" y="0" x="0" id="text-entity-Question-489e4f99-55a1-57b9-ae56-53457bd575f3-attr-3-type" class="er entityLabel">String</text><rect height="22" width="60.380889892578125" y="68" x="71.61680603027344" class="er attributeBoxOdd"/><text style="dominant-baseline: middle; font-size: 10.2px;" transform="translate(76.61680603027344,79)" y="0" x="0" id="text-entity-Question-489e4f99-55a1-57b9-ae56-53457bd575f3-attr-3-name" class="er entityLabel">text</text><rect height="22" width="24.015625" y="68" x="131.99769592285156" class="er attributeBoxOdd"/><text style="dominant-baseline: middle; font-size: 10.2px;" transform="translate(136.99769592285156,79)" y="0" x="0" id="text-entity-Question-489e4f99-55a1-57b9-ae56-53457bd575f3-attr-3-comment" class="er entityLabel"/><rect height="22" width="71.61680603027344" y="90" x="0" class="er attributeBoxEven"/><text style="dominant-baseline: middle; font-size: 10.2px;" transform="translate(5,101)" y="0" x="0" id="text-entity-Question-489e4f99-55a1-57b9-ae56-53457bd575f3-attr-4-type" class="er entityLabel">String</text><rect height="22" width="60.380889892578125" y="90" x="71.61680603027344" class="er attributeBoxEven"/><text style="dominant-baseline: middle; font-size: 10.2px;" transform="translate(76.61680603027344,101)" y="0" x="0" id="text-entity-Question-489e4f99-55a1-57b9-ae56-53457bd575f3-attr-4-name" class="er entityLabel">choices</text><rect height="22" width="24.015625" y="90" x="131.99769592285156" class="er attributeBoxEven"/><text style="dominant-baseline: middle; font-size: 10.2px;" transform="translate(136.99769592285156,101)" y="0" x="0" id="text-entity-Question-489e4f99-55a1-57b9-ae56-53457bd575f3-attr-4-comment" class="er entityLabel"/><rect height="22" width="71.61680603027344" y="112" x="0" class="er attributeBoxOdd"/><text style="dominant-baseline: middle; font-size: 10.2px;" transform="translate(5,123)" y="0" x="0" id="text-entity-Question-489e4f99-55a1-57b9-ae56-53457bd575f3-attr-5-type" class="er entityLabel">Int</text><rect height="22" width="60.380889892578125" y="112" x="71.61680603027344" class="er attributeBoxOdd"/><text style="dominant-baseline: middle; font-size: 10.2px;" transform="translate(76.61680603027344,123)" y="0" x="0" id="text-entity-Question-489e4f99-55a1-57b9-ae56-53457bd575f3-attr-5-name" class="er entityLabel">nextPageId</text><rect height="22" width="24.015625" y="112" x="131.99769592285156" class="er attributeBoxOdd"/><text style="dominant-baseline: middle; font-size: 10.2px;" transform="translate(136.99769592285156,123)" y="0" x="0" id="text-entity-Question-489e4f99-55a1-57b9-ae56-53457bd575f3-attr-5-comment" class="er entityLabel">❓</text></g><g transform="translate(307.97601318359375,601 )" id="entity-Answer-ece50f12-3031-5cf8-81e8-464b2211b4a2"><rect height="68" width="108.59043884277344" y="0" x="0" class="er entityBox"/><text style="dominant-baseline: middle; text-anchor: middle; font-size: 12px;" transform="translate(54.29521942138672,12)" y="0" x="0" id="text-entity-Answer-ece50f12-3031-5cf8-81e8-464b2211b4a2" class="er entityLabel">Answer</text><rect height="22" width="37.39605712890625" y="24" x="0" class="er attributeBoxOdd"/><text style="dominant-baseline: middle; font-size: 10.2px;" transform="translate(5,35)" y="0" x="0" id="text-entity-Answer-ece50f12-3031-5cf8-81e8-464b2211b4a2-attr-1-type" class="er entityLabel">Int</text><rect height="22" width="47.17875671386719" y="24" x="37.39605712890625" class="er attributeBoxOdd"/><text style="dominant-baseline: middle; font-size: 10.2px;" transform="translate(42.39605712890625,35)" y="0" x="0" id="text-entity-Answer-ece50f12-3031-5cf8-81e8-464b2211b4a2-attr-1-name" class="er entityLabel">id</text><rect height="22" width="24.015625" y="24" x="84.57481384277344" class="er attributeBoxOdd"/><text style="dominant-baseline: middle; font-size: 10.2px;" transform="translate(89.57481384277344,35)" y="0" x="0" id="text-entity-Answer-ece50f12-3031-5cf8-81e8-464b2211b4a2-attr-1-comment" class="er entityLabel">🗝️</text><rect height="22" width="37.39605712890625" y="46" x="0" class="er attributeBoxEven"/><text style="dominant-baseline: middle; font-size: 10.2px;" transform="translate(5,57)" y="0" x="0" id="text-entity-Answer-ece50f12-3031-5cf8-81e8-464b2211b4a2-attr-2-type" class="er entityLabel">String</text><rect height="22" width="47.17875671386719" y="46" x="37.39605712890625" class="er attributeBoxEven"/><text style="dominant-baseline: middle; font-size: 10.2px;" transform="translate(42.39605712890625,57)" y="0" x="0" id="text-entity-Answer-ece50f12-3031-5cf8-81e8-464b2211b4a2-attr-2-name" class="er entityLabel">answers</text><rect height="22" width="24.015625" y="46" x="84.57481384277344" class="er attributeBoxEven"/><text style="dominant-baseline: middle; font-size: 10.2px;" transform="translate(89.57481384277344,57)" y="0" x="0" id="text-entity-Answer-ece50f12-3031-5cf8-81e8-464b2211b4a2-attr-2-comment" class="er entityLabel"/></g><rect height="14" width="30.55859375" y="131" x="116.89157104492188" class="er relationshipLabelBox"/><text style="text-anchor: middle; dominant-baseline: middle; font-size: 12px;" y="138" x="132.17086791992188" id="rel1" class="er relationshipLabel">pages</text><rect height="14" width="50.8203125" y="295.2870178222656" x="105.01699829101562" class="er relationshipLabelBox"/><text style="text-anchor: middle; dominant-baseline: middle; font-size: 12px;" y="302.2870178222656" x="130.42715454101562" id="rel2" class="er relationshipLabel">questions</text><rect height="14" width="73.767578125" y="131" x="175.44580078125" class="er relationshipLabelBox"/><text style="text-anchor: middle; dominant-baseline: middle; font-size: 12px;" y="138" x="212.32958984375" id="rel3" class="er relationshipLabel">questionnaire</text><rect height="14" width="51.99609375" y="215" x="328.7982482910156" class="er relationshipLabelBox"/><text style="text-anchor: middle; dominant-baseline: middle; font-size: 12px;" y="222" x="354.7962951660156" id="rel4" class="er relationshipLabel">successor</text><rect height="14" width="65.765625" y="215" x="425.8023681640625" class="er relationshipLabelBox"/><text style="text-anchor: middle; dominant-baseline: middle; font-size: 12px;" y="222" x="458.6851806640625" id="rel5" class="er relationshipLabel">predecessor</text><rect height="14" width="26.013671875" y="298.96014404296875" x="199.5560302734375" class="er relationshipLabelBox"/><text style="text-anchor: middle; dominant-baseline: middle; font-size: 12px;" y="305.96014404296875" x="212.5628662109375" id="rel6" class="er relationshipLabel">page</text><rect height="14" width="58.38671875" y="528.7845458984375" x="93.10649871826172" class="er relationshipLabelBox"/><text style="text-anchor: middle; dominant-baseline: middle; font-size: 12px;" y="535.7845458984375" x="122.29985809326172" id="rel7" class="er relationshipLabel">enum:type</text><rect height="14" width="39.193359375" y="539.1541137695312" x="273.83001708984375" class="er relationshipLabelBox"/><text style="text-anchor: middle; dominant-baseline: middle; font-size: 12px;" y="546.1541137695312" x="293.42669677734375" id="rel8" class="er relationshipLabel">answer</text><rect height="14" width="47.6875" y="510.9737548828125" x="341.4421081542969" class="er relationshipLabelBox"/><text style="text-anchor: middle; dominant-baseline: middle; font-size: 12px;" y="517.9737548828125" x="365.2858581542969" id="rel9" class="er relationshipLabel">Question</text></svg>